inDegrees=yes
name=IK-live
DataType=double
version=3
OpenSimVersion=4.1
endheader
time	pelvis_tilt	pelvis_list	pelvis_rotation	pelvis_tx	pelvis_ty	pelvis_tz	hip_flexion_r	hip_adduction_r	hip_rotation_r	knee_angle_r	ankle_angle_r	subtalar_angle_r	mtp_angle_r	hip_flexion_l	hip_adduction_l	hip_rotation_l	knee_angle_l	ankle_angle_l	subtalar_angle_l	mtp_angle_l	lumbar_extension	lumbar_bending	lumbar_rotation	neck_flex	neck_latbend	neck_rot	arm_flex_r	arm_add_r	arm_rot_r	elbow_flex_r	pro_sup_r	wrist_flex_r	wrist_dev_r	arm_flex_l	arm_add_l	arm_rot_l	elbow_flex_l	pro_sup_l	wrist_flex_l	wrist_dev_l
16.9655644	155.1065611577739	-82.7397746953864	53.62222416034931	0.2341366603171506	0.04326292228651554	-1.326684523481465	-98.82405231880844	-3.412391143012343	-100.5450838721152	5.899560354604904	2.451982624139334	1.987972377786656	0	-93.6483641078765	1.8966290238896	85.5524307739756	9.793848132074926	-0.4439473045988533	4.250290820099795	0	-21.37711699760957	1.659277491615732	3.206407148933037	0	0	0	88.07769218503577	-14.99648866439464	-0.3839703884514326	74.73322426784716	44.99382593054504	0	4.996993315622545	88.10396148354272	-15.03521906535845	-0.5145594013704845	74.72014814522718	45.00322767684631	0	4.996993315622545
17.1175104	212.4288872318399	-71.11965236755285	115.6110729039912	0.2341366603171506	0.04326292228651554	-1.326684523481465	-109.7546318720368	-0.7715142054845151	-88.05887312549805	5.899560354604904	2.451982624139334	1.987972377786656	0	-105.0280588064778	-1.81494071998376	73.34127837196105	9.793848132074926	-0.4439473045988533	4.250290820099795	0	-21.37711699760957	1.659277491615732	3.206407148933037	0	0	0	88.07780078044624	-14.99648924294638	-0.3838844623118505	74.73331007271125	44.99383140595744	0	4.996999285375566	88.10406859461601	-15.03521326240397	-0.5144442499534368	74.7202381531945	45.00322481475789	0	4.996999285375566
17.284391	220.2609466828566	-66.64621090750208	124.1695253326849	0.2341366603171506	0.04326292228651554	-1.326684523481465	-112.1372778876027	-1.276850180827408	-83.24710265380232	5.899560354604904	2.451982624139334	1.987972377786656	0	-107.646454379308	-1.696964009180616	68.50253457226266	9.793848132074926	-0.4439473045988533	4.250290820099795	0	-21.37711699760957	1.659277491615732	3.206407148933037	0	0	0	88.07783873823479	-14.99648944472033	-0.3838545163788946	74.73333994971493	44.99383330705965	0	4.997001352157066	88.1041060335788	-15.03521123858302	-0.514404118785093	74.72026949370644	45.00322382102036	0	4.997001352157066
17.4482784	231.2285965526912	-68.39461047450152	138.0505300120101	0.2341366603171506	0.04326292228651554	-1.326684523481465	-108.0768258856235	1.539631204651192	-80.07702215136278	5.899560354604904	2.451982624139334	1.987972377786656	0	-103.7501017494293	-4.750816921392949	65.54224574006568	9.793848132074926	-0.4439473045988533	4.250290820099795	0	-21.37711699760957	1.659277491615732	3.206407148933037	0	0	0	88.07787439813973	-14.99648963411286	-0.3838264143412213	74.73336798041468	44.9938350899081	0	4.997003290262058	88.10414120606657	-15.03520933894953	-0.5143664586600137	74.72029889747401	45.00322288909602	0	4.997003290262058
17.5992426	260.4445411731257	-72.82913325870331	184.784061799936	0.2341366603171506	0.04326292228651554	-1.326684523481465	-98.10491415629579	20.2865999360062	-76.70978060510551	5.899560354604904	2.451982624139334	1.987972377786656	0	-93.6027152707459	-23.69499748306439	63.6249597899284	9.793848132074926	-0.4439473045988533	4.250290820099795	0	-21.37711699760957	1.659277491615732	3.206407148933037	0	0	0	88.07805309801336	-14.99649059077313	-0.3836841603971844	74.73351020711601	44.99384417970656	0	4.99701318102437	88.10431746337441	-15.03519974351433	-0.5141758211545895	74.72044809107167	45.00321813770837	0	4.99701318102437
17.7659155	226.5534364833896	-66.95145923237904	187.6252662048049	0.2341366603171506	0.04326292228651554	-1.326684523481465	-123.2831815167764	50.69136701281881	-53.9348440616492	5.899560354604904	2.451982624139334	1.987972377786656	0	-118.9601147816856	-55.41126453778178	42.62611939697947	9.793848132074926	-0.4439473045988533	4.250290820099795	0	-21.37711699760957	1.659277491615732	3.206407148933037	0	0	0	88.07827914291801	-14.99649180086267	-0.3835042375112164	74.73369006326723	44.99385566001746	0	4.997025641344863	88.10454041857609	-15.03518760614817	-0.5139347027110429	74.72063675737651	45.0032121367604	0	4.997025641344863
17.9160102	231.5073652291146	-72.99208447924759	213.771696203284	0.2341366603171506	0.04326292228651554	-1.326684523481465	-141.9036895879006	71.04007627736766	-33.61710922185861	5.899560354604904	2.451982624139334	1.987972377786656	0	-139.1916507479385	-76.37894904763841	21.45664236155904	9.793848132074926	-0.4439473045988533	4.250290820099795	0	-21.37711699760957	1.659277491615732	3.206407148933037	0	0	0	88.07869459937143	-14.99649402654858	-0.3831732382008004	74.73402101993955	44.99387679203312	0	4.997048556632416	88.10495019634645	-15.03516528220935	-0.5134911235690813	74.7209839257779	45.00320109070708	0	4.997048556632416
